<svg xmlns="http://www.w3.org/2000/svg" width="135.697" height="129.093" viewBox="0 0 135.697 129.093">
  <g id="logo" transform="translate(-694 -183.907)">
    <path id="Icon_awesome-music" data-name="Icon awesome-music" d="M109.24,6.831a6.823,6.823,0,0,0-8.876-6.51L32.09,20.484a6.826,6.826,0,0,0-4.779,6.508V82.769a29.515,29.515,0,0,0-6.828-.836C9.17,81.933,0,88.045,0,95.588s9.17,13.655,20.483,13.655,20.483-6.113,20.483-13.655V45.727L95.586,29.721V69.114a29.515,29.515,0,0,0-6.828-.836c-11.312,0-20.483,6.113-20.483,13.655s9.17,13.655,20.483,13.655,20.483-6.113,20.483-13.655l0-75.1Z" transform="translate(703 194.757)" fill="rgba(0,185,255,0.44)"/>
    <path id="Icon_awesome-music-2" data-name="Icon awesome-music" d="M109.24,6.831a6.823,6.823,0,0,0-8.876-6.51L32.09,20.484a6.826,6.826,0,0,0-4.779,6.508V82.769a29.515,29.515,0,0,0-6.828-.836C9.17,81.933,0,88.045,0,95.588s9.17,13.655,20.483,13.655,20.483-6.113,20.483-13.655V45.727L95.586,29.721V69.114a29.515,29.515,0,0,0-6.828-.836c-11.312,0-20.483,6.113-20.483,13.655s9.17,13.655,20.483,13.655,20.483-6.113,20.483-13.655l0-75.1Z" transform="translate(711.456 192.907)" fill="rgba(255,0,0,0.51)"/>
    <path id="Icon_awesome-music-3" data-name="Icon awesome-music" d="M109.24,6.831a6.823,6.823,0,0,0-8.876-6.51L32.09,20.484a6.826,6.826,0,0,0-4.779,6.508V82.769a29.515,29.515,0,0,0-6.828-.836C9.17,81.933,0,88.045,0,95.588s9.17,13.655,20.483,13.655,20.483-6.113,20.483-13.655V45.727L95.586,29.721V69.114a29.515,29.515,0,0,0-6.828-.836c-11.312,0-20.483,6.113-20.483,13.655s9.17,13.655,20.483,13.655,20.483-6.113,20.483-13.655l0-75.1Z" transform="translate(707.228 190.001)" fill="#48008e"/>
  </g>
</svg>
